<!DOCTYPE svg PUBLIC "-//W3C//DTD SVG 20010904//EN" "http://www.w3.org/TR/2001/REC-SVG-20010904/DTD/svg10.dtd">
<svg version="1.0" xmlns="http://www.w3.org/2000/svg" width="2060px" height="2400px" viewBox="0 0 10300 12000" preserveAspectRatio="xMidYMid meet">
<g id="layer101" fill="#000000" stroke="none">
 <path d="M4204 11973 c27 -130 456 -2743 453 -2759 -2 -11 -474 -720 -1048 -1575 -575 -855 -1049 -1559 -1053 -1566 -4 -8 296 -462 766 -1158 655 -973 775 -1146 793 -1142 11 2 489 205 1063 452 l1042 448 25 82 c29 93 50 198 60 297 l7 68 -54 77 c-29 42 -78 102 -108 133 -55 56 -56 56 -190 93 -192 52 -584 147 -609 147 -12 0 -161 -95 -332 -211 -171 -116 -312 -209 -313 -207 -2 1 -69 142 -150 312 l-147 309 51 52 c54 54 60 76 33 109 -10 11 3 4 29 -17 30 -24 56 -37 75 -36 15 0 242 103 503 227 l475 227 213 420 c117 231 333 655 479 943 234 461 291 561 307 540 2 -2 -122 -408 -275 -903 -154 -495 -278 -905 -276 -911 1 -6 241 84 532 199 l530 208 335 334 335 334 207 -190 c114 -104 211 -189 216 -189 5 0 93 126 195 280 l187 280 0 67 c0 71 -34 232 -69 322 -11 29 -45 96 -75 151 -31 54 -56 111 -56 127 -1 56 -29 163 -65 239 -35 76 -221 343 -423 609 l-100 130 -16 1285 c-10 707 -19 1309 -22 1338 l-5 52 -1766 0 -1765 0 6 -27z"/>
 <path d="M10091 10202 c-128 -323 -276 -615 -583 -1147 -358 -619 -708 -1173 -1096 -1734 l-176 -255 69 -63 c38 -35 72 -63 76 -63 17 0 464 637 638 907 444 690 789 1318 1179 2145 97 206 102 219 102 282 l0 66 -77 0 -78 0 -54 -138z"/>
 <path d="M7637 7098 c-83 -106 -200 -254 -259 -328 -59 -74 -107 -138 -105 -142 1 -4 283 -347 627 -762 411 -498 630 -754 640 -752 9 2 111 66 227 144 l210 140 133 228 132 227 -719 719 c-395 395 -721 718 -725 718 -5 0 -77 -87 -161 -192z"/>
 <path d="M8546 7026 c-58 -85 -86 -134 -86 -153 1 -23 23 -47 126 -137 69 -59 127 -106 130 -104 6 7 -68 501 -76 511 -4 5 -46 -48 -94 -117z"/>
 <path d="M6610 6311 c-234 -119 -424 -222 -422 -227 1 -5 307 -446 679 -981 l675 -972 57 32 c31 17 139 79 241 137 l185 106 118 149 c65 83 149 191 188 242 l70 91 -668 819 c-368 450 -676 819 -684 820 -8 1 -205 -96 -439 -216z"/>
 <path d="M5635 5943 c-316 -158 -386 -197 -370 -204 11 -5 216 -61 455 -125 337 -89 440 -120 456 -137 91 -93 305 -353 301 -366 -2 -9 -35 -136 -72 -282 l-69 -267 -338 -132 c-186 -73 -338 -137 -338 -142 0 -9 665 -1133 681 -1152 5 -5 141 45 311 114 l303 122 235 260 c129 143 235 267 235 277 0 22 -1376 2231 -1390 2230 -5 0 -185 -88 -400 -196z"/>
 <path d="M4878 3957 c-290 -139 -528 -256 -528 -261 0 -12 882 -1277 895 -1282 6 -3 133 31 284 75 l272 80 215 207 c118 114 213 211 212 215 -6 15 -813 1218 -818 1218 -3 0 -242 -113 -532 -252z"/>
 <path d="M1480 4178 c-120 -61 -178 -260 -167 -563 10 -258 70 -531 173 -780 7 -19 7 -19 -13 -5 -217 157 -453 288 -626 349 -176 61 -242 75 -382 75 -123 1 -133 -1 -185 -27 -63 -31 -85 -57 -102 -120 -58 -219 312 -637 792 -894 49 -26 90 -51 90 -54 0 -4 -21 -9 -47 -13 -71 -9 -236 -53 -353 -92 -306 -104 -568 -280 -640 -429 -31 -64 -26 -158 12 -207 111 -146 518 -190 940 -102 102 21 276 68 331 90 12 4 -5 -37 -57 -137 -227 -437 -307 -872 -198 -1074 152 -280 593 44 883 649 l57 120 11 -45 c30 -121 108 -339 162 -449 110 -228 238 -389 354 -445 46 -23 65 -27 118 -23 69 4 101 22 144 80 134 182 122 679 -27 1122 l-39 118 27 -18 c482 -319 979 -459 1220 -343 66 32 97 86 97 169 0 58 -5 77 -42 151 -23 46 -70 116 -103 156 -163 195 -501 429 -787 544 -46 18 -81 34 -79 36 2 2 54 12 117 22 403 67 784 233 962 419 193 203 119 379 -187 443 -118 25 -375 27 -531 4 -121 -17 -372 -76 -449 -106 -28 -10 -51 -17 -53 -15 -2 2 13 30 33 62 59 92 179 349 218 465 98 296 106 552 19 667 -33 44 -75 64 -138 64 -223 2 -534 -301 -765 -744 l-68 -131 -7 44 c-14 82 -77 284 -127 406 -172 420 -414 651 -588 561z m114 -279 c151 -100 352 -505 426 -859 28 -133 37 -295 20 -374 -13 -66 -53 -116 -90 -116 -142 0 -371 380 -480 795 -69 265 -66 507 7 564 35 29 62 26 117 -10z m1335 -65 c36 -25 51 -75 51 -164 0 -283 -219 -791 -444 -1027 -86 -91 -141 -125 -192 -121 -59 5 -78 40 -82 147 -7 170 57 399 183 656 89 182 175 314 269 410 102 104 165 133 215 99z m-2244 -856 c399 -100 905 -434 966 -639 27 -87 -31 -125 -176 -116 -352 23 -984 386 -1096 632 -25 53 -24 79 4 109 44 50 143 54 302 14z m3177 -179 c52 -13 98 -54 98 -88 0 -160 -468 -406 -925 -486 -138 -25 -314 -24 -379 1 -102 39 -109 100 -23 191 196 207 789 418 1117 396 41 -2 92 -9 112 -14z m-1645 -475 c168 -80 197 -310 55 -434 -45 -40 -119 -70 -172 -70 -107 0 -225 90 -255 195 -43 148 47 297 202 334 52 13 108 4 170 -25z m-632 -364 c93 -46 88 -103 -19 -205 -192 -184 -656 -356 -1001 -372 -156 -7 -227 7 -273 53 -28 28 -33 39 -27 62 41 171 510 405 955 477 47 8 136 13 200 12 100 -3 123 -6 165 -27z m1290 -77 c221 -42 523 -176 735 -324 93 -65 210 -181 234 -232 100 -216 -306 -199 -779 32 -342 168 -569 375 -525 480 28 69 135 83 335 44z m-993 -250 c31 -35 40 -68 45 -147 17 -288 -191 -832 -410 -1072 -74 -81 -122 -114 -168 -114 -74 0 -105 76 -96 240 13 243 151 628 313 871 59 90 163 201 207 223 42 21 90 20 109 -1z m406 -7 c40 -21 124 -114 178 -196 105 -162 214 -437 266 -670 32 -144 33 -374 3 -435 -44 -88 -114 -77 -218 35 -274 297 -488 1096 -337 1258 24 25 68 29 108 8z"/>
 <path d="M3988 3246 c-207 -117 -387 -220 -400 -229 -21 -15 -11 -16 167 -16 l191 -1 268 155 c148 85 271 157 273 159 7 7 -99 146 -111 145 -6 0 -181 -96 -388 -213z"/>
 </g>

</svg>